<?xml version="1.0" encoding="utf-8"?>
<!-- Generator: Adobe Illustrator 16.0.3, SVG Export Plug-In . SVG Version: 6.00 Build 0)  -->
<!DOCTYPE svg PUBLIC "-//W3C//DTD SVG 1.1//EN" "http://www.w3.org/Graphics/SVG/1.1/DTD/svg11.dtd">
<svg version="1.1" id="Layer_1" xmlns="http://www.w3.org/2000/svg" xmlns:xlink="http://www.w3.org/1999/xlink" x="0px" y="0px"
	 width="48px" height="48px" viewBox="0 0 48 48" enable-background="new 0 0 48 48" xml:space="preserve">
<g>
	<path fill="none" d="M-0.001-0.001h48.003v48.002H-0.001V-0.001z"/>
	<path fill="#CCCCCC" d="M38.699,20.08C37.34,13.179,31.281,7.999,24,7.999c-5.781,0-10.801,3.281-13.301,8.081
		c-6.02,0.64-10.7,5.741-10.7,11.92c0,6.622,5.38,12.001,12.001,12.001h26c5.52,0,10.002-4.48,10.002-10.001
		C48.002,24.721,43.9,20.439,38.699,20.08z M28,26v8.001h-8V26h-6l10-10l10,10H28z"/>
</g>
</svg>
