<?xml version="1.0" encoding="utf-8"?>
<!-- Generator: Adobe Illustrator 16.0.3, SVG Export Plug-In . SVG Version: 6.00 Build 0)  -->
<!DOCTYPE svg PUBLIC "-//W3C//DTD SVG 1.1//EN" "http://www.w3.org/Graphics/SVG/1.1/DTD/svg11.dtd">
<svg version="1.1" id="Layer_1" xmlns="http://www.w3.org/2000/svg" xmlns:xlink="http://www.w3.org/1999/xlink" x="0px" y="0px"
	 width="48px" height="48px" viewBox="0 0 48 48" enable-background="new 0 0 48 48" xml:space="preserve">
<path fill="none" d="M20.3,34.359"/>
<path fill="#CCCCCC" d="M31.8,10c-0.35,0-0.64,0.19-0.819,0.46l-0.131,0.29L20.48,34.061c-0.32,0.569-0.51,1.22-0.51,1.93
	c0,2.21,1.8,4.01,4.01,4.01c1.93,0,3.53-1.359,3.92-3.17l0.01-0.07L32.8,11C32.8,10.45,32.35,10,31.8,10z M2,18l4,4
	c5.75-5.75,13.57-8.15,21.07-7.25l2.38-5.36C19.79,7.68,9.47,10.54,2,18z M42,22l4-4c-3.27-3.27-7.1-5.63-11.17-7.14l-1.07,5.63
	C36.75,17.73,39.561,19.56,42,22z M34,30l4-4c-1.6-1.6-3.41-2.84-5.33-3.78l-1.109,5.841C32.43,28.609,33.25,29.25,34,30z M10,26
	l4,4c2.27-2.27,5.11-3.59,8.06-3.99l2.57-5.77C19.35,20.08,14.03,21.98,10,26z"/>
<path fill="none" d="M0,0h48v48H0V0z"/>
</svg>
