<?xml version="1.0" encoding="utf-8"?>
<!-- Generator: Adobe Illustrator 16.0.3, SVG Export Plug-In . SVG Version: 6.00 Build 0)  -->
<!DOCTYPE svg PUBLIC "-//W3C//DTD SVG 1.1//EN" "http://www.w3.org/Graphics/SVG/1.1/DTD/svg11.dtd">
<svg version="1.1" id="Layer_1" xmlns="http://www.w3.org/2000/svg" xmlns:xlink="http://www.w3.org/1999/xlink" x="0px" y="0px"
	 width="48px" height="48px" viewBox="0 0 48 48" enable-background="new 0 0 48 48" xml:space="preserve">
<path fill="none" d="M0,0h48v48H0V0z"/>
<path fill="#CCCCCC" d="M32.49,15.51C30.141,13.17,27.07,12,24,12v12l-8.49,8.49c4.69,4.689,12.28,4.689,16.971,0
	C37.17,27.8,37.17,20.2,32.49,15.51z M24,4C12.95,4,4,12.95,4,24s8.95,20,20,20s20-8.96,20-20C44,12.95,35.05,4,24,4z M24,40
	c-8.84,0-16-7.16-16-16S15.16,8,24,8s16,7.16,16,16S32.84,40,24,40z"/>
</svg>
