<?xml version="1.0" encoding="utf-8"?>
<!-- Generator: Adobe Illustrator 16.0.3, SVG Export Plug-In . SVG Version: 6.00 Build 0)  -->
<!DOCTYPE svg PUBLIC "-//W3C//DTD SVG 1.1//EN" "http://www.w3.org/Graphics/SVG/1.1/DTD/svg11.dtd">
<svg version="1.1" id="Layer_1" xmlns="http://www.w3.org/2000/svg" xmlns:xlink="http://www.w3.org/1999/xlink" x="0px" y="0px"
	 width="800px" height="800px" viewBox="0 0 800 800" enable-background="new 0 0 800 800" xml:space="preserve">
<polygon fill="#8DC63F" points="0,266.666 266.667,266.666 266.667,0 "/>
<polygon fill="#39B54A" points="266.667,533.332 266.667,266.666 0.001,266.666 "/>
<polygon fill="#F9ED32" points="533.335,266.667 533.335,0 266.667,0 "/>
<polygon fill="#D7DF23" points="800,0 533.333,0 533.333,266.667 "/>
<polygon fill="#EF4136" points="533.335,266.666 533.335,533.332 800,533.332 "/>
<polygon fill="#F7941E" points="533.335,799.999 533.335,533.332 266.667,533.332 "/>
<polygon fill="#F15A29" points="800,533.332 533.333,533.332 533.333,799.999 "/>
<polygon fill="#FBB040" points="266.667,533.332 266.667,799.999 533.333,799.999 "/>
<polygon fill="#F7941E" points="0,799.999 266.667,799.999 266.667,533.332 "/>
<polygon fill="#D7DF23" points="266.667,0 266.667,266.667 533.335,266.667 "/>
</svg>
