<?xml version="1.0" encoding="utf-8"?>
<!-- Generator: Adobe Illustrator 16.0.3, SVG Export Plug-In . SVG Version: 6.00 Build 0)  -->
<!DOCTYPE svg PUBLIC "-//W3C//DTD SVG 1.1//EN" "http://www.w3.org/Graphics/SVG/1.1/DTD/svg11.dtd">
<svg version="1.1" id="Layer_1" xmlns="http://www.w3.org/2000/svg" xmlns:xlink="http://www.w3.org/1999/xlink" x="0px" y="0px"
	 width="3130px" height="800px" viewBox="0 0 3130 800" enable-background="new 0 0 3130 800" xml:space="preserve">
<polygon fill="#8DC63F" points="0,266.666 266.667,266.666 266.667,0 "/>
<polygon fill="#39B54A" points="266.667,533.332 266.667,266.666 0.001,266.666 "/>
<polygon fill="#F9ED32" points="533.335,266.667 533.335,0 266.667,0 "/>
<polygon fill="#D7DF23" points="800,0 533.333,0 533.333,266.667 "/>
<polygon fill="#EF4136" points="533.335,266.666 533.335,533.332 800,533.332 "/>
<polygon fill="#F7941E" points="533.335,799.999 533.335,533.332 266.667,533.332 "/>
<polygon fill="#F15A29" points="800,533.332 533.333,533.332 533.333,799.999 "/>
<polygon fill="#FBB040" points="266.667,533.332 266.667,799.999 533.333,799.999 "/>
<polygon fill="#F7941E" points="0,799.999 266.667,799.999 266.667,533.332 "/>
<polygon fill="#D7DF23" points="266.667,0 266.667,266.667 533.335,266.667 "/>
<g>
	<path d="M1190.08,496.238c0,11.018-1.871,20.887-5.611,29.615c-3.742,8.729-8.837,16.475-15.275,23.226
		c-6.444,6.757-13.928,12.522-22.446,17.303c-8.523,4.783-17.613,8.729-27.277,11.846c-9.664,3.118-19.592,5.402-29.771,6.859
		c-10.187,1.451-20.161,2.182-29.929,2.182c-21.198,0-40.684-0.936-58.452-2.806c-17.771-1.87-35.18-4.881-52.219-9.041v-49.88
		c18.285,5.198,36.476,9.147,54.557,11.847c18.081,2.703,36.056,4.053,53.933,4.053c25.979,0,45.203-3.53,57.674-10.6
		c12.471-7.063,18.705-17.146,18.705-30.239c0-5.61-0.988-10.647-2.962-15.12c-1.978-4.467-5.563-8.729-10.755-12.78
		c-5.197-4.054-13.25-8.263-24.16-12.626c-10.912-4.365-25.827-9.354-44.736-14.964c-14.137-4.155-27.176-8.886-39.125-14.186
		c-11.953-5.3-22.289-11.584-31.02-18.86c-8.729-7.272-15.587-15.793-20.575-25.563c-4.987-9.767-7.481-21.301-7.481-34.604
		c0-8.729,2.025-18.286,6.078-28.681c4.054-10.39,10.961-20.054,20.732-28.993c9.766-8.934,22.962-16.367,39.592-22.29
		c16.625-5.923,37.41-8.885,62.35-8.885c12.262,0,25.875,0.677,40.841,2.026c14.963,1.354,30.551,3.692,46.762,7.014v48.321
		c-17.043-4.155-33.201-7.219-48.478-9.197c-15.274-1.973-28.524-2.961-39.748-2.961c-13.513,0-24.892,1.042-34.137,3.118
		c-9.25,2.08-16.732,4.939-22.445,8.573c-5.719,3.639-9.819,7.901-12.313,12.782c-2.494,4.886-3.741,10.132-3.741,15.744
		c0,5.611,1.091,10.707,3.273,15.275c2.183,4.574,6.234,8.992,12.158,13.25c5.923,4.262,14.185,8.524,24.783,12.782
		c10.601,4.262,24.418,8.885,41.463,13.874c18.495,5.406,34.082,11.066,46.763,16.989c12.675,5.923,22.963,12.523,30.862,19.796
		c7.896,7.277,13.562,15.485,16.99,24.628C1188.365,474.211,1190.08,484.601,1190.08,496.238z"/>
	<path d="M1545.474,577.293c-12.265,3.117-24.938,5.349-38.032,6.702c-13.095,1.35-26.396,2.026-39.904,2.026
		c-39.28,0-68.585-8.886-87.913-26.654c-19.328-17.77-28.992-45.048-28.992-81.834V314.176h-87.602V268.66h87.602v-86.042
		l54.244-14.029V268.66h140.599v45.516h-140.599v158.992c0,22.446,5.972,39.232,17.926,50.348
		c11.948,11.121,29.563,16.68,52.841,16.68c9.978,0,20.889-0.779,32.734-2.338c11.846-1.56,24.209-3.999,37.098-7.326
		L1545.474,577.293L1545.474,577.293z"/>
	<path d="M1750.917,313.553h-92.59v-44.892h147.458v267.792h93.213v45.204H1648.04v-45.204h102.877V313.553z M1769.934,137.414
		c6.025,0,11.639,1.091,16.835,3.273c5.192,2.183,9.714,5.251,13.562,9.197c3.844,3.95,6.857,8.471,9.041,13.561
		c2.183,5.095,3.272,10.653,3.272,16.679c0,5.821-1.091,11.33-3.272,16.522c-2.184,5.198-5.197,9.771-9.041,13.717
		c-3.848,3.95-8.368,7.014-13.562,9.196c-5.196,2.183-10.81,3.273-16.835,3.273c-6.029,0-11.642-1.091-16.834-3.273
		c-5.196-2.182-9.718-5.246-13.562-9.196c-3.849-3.946-6.858-8.521-9.04-13.717c-2.184-5.192-3.273-10.702-3.273-16.522
		c0-6.025,1.092-11.583,3.273-16.679c2.182-5.09,5.191-9.611,9.04-13.561c3.844-3.946,8.364-7.014,13.562-9.197
		C1758.292,138.505,1763.903,137.414,1769.934,137.414z"/>
	<path d="M2008.109,268.661h49.567l1.56,57.674c18.496-22.236,36.732-38.345,54.713-48.321
		c17.974-9.976,36.108-14.964,54.398-14.964c32.424,0,56.997,10.497,73.729,31.487c16.727,20.994,24.472,52.169,23.225,93.525
		h-54.866c0.623-27.434-3.382-47.333-12.004-59.7c-8.625-12.363-21.252-18.549-37.877-18.549c-7.276,0-14.604,1.301-21.979,3.897
		c-7.38,2.601-14.964,6.756-22.758,12.47c-7.794,5.718-16.055,13.044-24.784,21.978c-8.729,8.938-18.081,19.748-28.058,32.422
		v201.079h-54.867V268.661L2008.109,268.661z"/>
	<path d="M2359.499,483.456c7.063,0,13.767,1.354,20.108,4.053c6.336,2.703,11.847,6.444,16.521,11.224
		c4.677,4.783,8.364,10.342,11.066,16.679c2.698,6.343,4.054,13.146,4.054,20.42c0,7.068-1.354,13.717-4.054,19.952
		c-2.702,6.233-6.391,11.689-11.066,16.366s-10.186,8.368-16.521,11.066c-6.343,2.699-13.045,4.054-20.108,4.054
		c-7.277,0-14.028-1.354-20.264-4.054c-6.234-2.698-11.69-6.391-16.366-11.066c-4.677-4.677-8.369-10.133-11.066-16.366
		c-2.703-6.235-4.054-12.884-4.054-19.952c0-7.272,1.351-14.077,4.054-20.42c2.697-6.337,6.391-11.896,11.066-16.679
		c4.676-4.778,10.132-8.521,16.366-11.224C2345.471,484.811,2352.222,483.456,2359.499,483.456z"/>
	<path d="M2775.229,496.238c0,11.018-1.869,20.887-5.61,29.615c-3.741,8.729-8.836,16.475-15.275,23.226
		c-6.444,6.757-13.927,12.522-22.446,17.303c-8.523,4.783-17.613,8.729-27.277,11.846c-9.664,3.118-19.592,5.402-29.771,6.859
		c-10.186,1.451-20.162,2.182-29.929,2.182c-21.198,0-40.683-0.936-58.453-2.806c-17.77-1.87-35.179-4.881-52.218-9.041v-49.88
		c18.286,5.198,36.475,9.147,54.557,11.847c18.081,2.703,36.057,4.053,53.934,4.053c25.978,0,45.203-3.53,57.673-10.6
		c12.471-7.063,18.705-17.146,18.705-30.239c0-5.61-0.988-10.647-2.961-15.12c-1.978-4.467-5.563-8.729-10.756-12.78
		c-5.197-4.054-13.249-8.263-24.16-12.626c-10.911-4.365-25.827-9.354-44.736-14.964c-14.136-4.155-27.176-8.886-39.125-14.186
		c-11.952-5.3-22.29-11.584-31.019-18.86c-8.729-7.272-15.588-15.793-20.575-25.563c-4.988-9.767-7.481-21.301-7.481-34.604
		c0-8.729,2.025-18.286,6.078-28.681c4.054-10.39,10.961-20.054,20.731-28.993c9.767-8.934,22.962-16.367,39.592-22.29
		c16.625-5.923,37.41-8.885,62.352-8.885c12.261,0,25.875,0.677,40.839,2.026c14.964,1.354,30.552,3.692,46.763,7.014v48.321
		c-17.044-4.155-33.2-7.219-48.478-9.197c-15.275-1.973-28.524-2.961-39.748-2.961c-13.512,0-24.892,1.042-34.137,3.118
		c-9.25,2.08-16.731,4.939-22.445,8.573c-5.719,3.639-9.82,7.901-12.314,12.782c-2.494,4.886-3.74,10.132-3.74,15.744
		c0,5.611,1.092,10.707,3.272,15.275c2.183,4.574,6.235,8.992,12.158,13.25c5.924,4.262,14.185,8.524,24.784,12.782
		c10.6,4.262,24.418,8.885,41.463,13.874c18.494,5.406,34.082,11.066,46.763,16.989c12.674,5.923,22.962,12.523,30.862,19.796
		c7.896,7.277,13.562,15.485,16.99,24.628C2773.514,474.211,2775.229,484.601,2775.229,496.238z"/>
	<path d="M3130,581.657h-54.244V381.826c0-24.107-4.521-42.135-13.562-54.088c-9.041-11.949-21.979-17.926-38.813-17.926
		c-7.277,0-14.083,0.989-20.42,2.962c-6.342,1.978-12.938,5.407-19.796,10.288c-6.857,4.886-14.341,11.486-22.446,19.796
		c-8.104,8.315-17.457,18.705-28.058,31.175v207.625h-54.244V141.155h54.244V268.66l-1.87,49.256
		c8.52-10.18,16.883-18.753,25.096-25.719c8.208-6.96,16.416-12.626,24.628-16.99c8.208-4.365,16.571-7.482,25.097-9.353
		c8.52-1.871,17.352-2.806,26.498-2.806c31.176,0,55.282,9.508,72.326,28.525c17.039,19.017,25.563,47.649,25.563,85.887
		L3130,581.657L3130,581.657z"/>
</g>
</svg>
