<?xml version="1.0" encoding="utf-8"?>
<!-- Generator: Adobe Illustrator 16.0.3, SVG Export Plug-In . SVG Version: 6.00 Build 0)  -->
<!DOCTYPE svg PUBLIC "-//W3C//DTD SVG 1.1//EN" "http://www.w3.org/Graphics/SVG/1.1/DTD/svg11.dtd">
<svg version="1.1" id="Layer_1" xmlns="http://www.w3.org/2000/svg" xmlns:xlink="http://www.w3.org/1999/xlink" x="0px" y="0px"
	 width="796px" height="210px" viewBox="1167 295 796 210" enable-background="new 1167 295 796 210" xml:space="preserve">
<g>
	<polygon fill="#8DC63F" points="1170,366.347 1237.306,366.347 1237.306,299.042 	"/>
	<polygon fill="#39B54A" points="1237.306,433.652 1237.306,366.347 1170,366.347 	"/>
	<polygon fill="#F9ED32" points="1304.612,366.348 1304.612,299.042 1237.306,299.042 	"/>
	<polygon fill="#D7DF23" points="1371.917,299.042 1304.612,299.042 1304.612,366.348 	"/>
	<polygon fill="#EF4136" points="1304.612,366.347 1304.612,433.652 1371.917,433.652 	"/>
	<polygon fill="#F7941E" points="1304.612,500.959 1304.612,433.652 1237.306,433.652 	"/>
	<polygon fill="#F15A29" points="1371.917,433.652 1304.612,433.652 1304.612,500.959 	"/>
	<polygon fill="#FBB040" points="1237.306,433.652 1237.306,500.959 1304.612,500.959 	"/>
	<polygon fill="#F7941E" points="1170,500.959 1237.306,500.959 1237.306,433.652 	"/>
	<polygon fill="#D7DF23" points="1237.306,299.042 1237.306,366.348 1304.612,366.348 	"/>
</g>
<g>
	<path d="M1470.372,424.291c0,2.779-0.472,5.271-1.416,7.475c-0.944,2.201-2.231,4.158-3.855,5.861
		c-1.626,1.705-3.516,3.162-5.666,4.367c-2.15,1.207-4.445,2.203-6.884,2.99c-2.439,0.785-4.944,1.363-7.514,1.73
		c-2.571,0.365-5.088,0.553-7.554,0.553c-5.35,0-10.269-0.236-14.753-0.711c-4.485-0.471-8.879-1.23-13.18-2.281v-12.588
		c4.616,1.313,9.207,2.309,13.77,2.988c4.563,0.682,9.1,1.023,13.612,1.023c6.557,0,11.409-0.891,14.556-2.676
		c3.148-1.781,4.722-4.326,4.722-7.631c0-1.416-0.25-2.689-0.749-3.816c-0.499-1.127-1.404-2.203-2.714-3.227
		c-1.312-1.021-3.344-2.086-6.098-3.186c-2.754-1.104-6.518-2.361-11.291-3.777c-3.567-1.049-6.859-2.242-9.875-3.58
		c-3.018-1.338-5.626-2.926-7.83-4.762c-2.203-1.834-3.934-3.985-5.193-6.451c-1.259-2.465-1.888-5.377-1.888-8.734
		c0-2.203,0.511-4.615,1.534-7.238c1.023-2.623,2.767-5.063,5.233-7.318c2.465-2.255,5.796-4.131,9.993-5.625
		c4.196-1.496,9.442-2.243,15.737-2.243c3.095,0,6.531,0.17,10.308,0.511c3.777,0.342,7.711,0.932,11.803,1.771v12.196
		c-4.301-1.049-8.38-1.822-12.236-2.321c-3.855-0.498-7.2-0.747-10.032-0.747c-3.41,0-6.282,0.263-8.616,0.787
		c-2.335,0.525-4.223,1.247-5.665,2.164c-1.444,0.918-2.479,1.994-3.108,3.226c-0.63,1.233-0.944,2.557-0.944,3.974
		s0.274,2.702,0.826,3.855c0.551,1.155,1.573,2.27,3.069,3.344c1.495,1.076,3.58,2.151,6.255,3.227
		c2.676,1.076,6.164,2.242,10.465,3.502c4.668,1.365,8.602,2.793,11.803,4.287c3.199,1.496,5.795,3.16,7.789,4.996
		c1.994,1.838,3.423,3.91,4.289,6.217C1469.939,418.73,1470.372,421.354,1470.372,424.291z"/>
	<path d="M1560.072,444.748c-3.096,0.787-6.294,1.35-9.6,1.691c-3.305,0.34-6.662,0.512-10.072,0.512
		c-9.914,0-17.311-2.244-22.188-6.729s-7.318-11.369-7.318-20.652v-41.232h-22.11v-11.488h22.11v-21.716l13.691-3.542v25.258h35.487
		v11.488h-35.487v40.128c0,5.666,1.507,9.904,4.525,12.709c3.015,2.807,7.461,4.209,13.336,4.209c2.519,0,5.272-0.197,8.263-0.59
		c2.989-0.395,6.11-1.01,9.363-1.85V444.748L1560.072,444.748z"/>
	<path d="M1611.925,378.181h-23.37v-11.33h37.219v67.588h23.527v11.41h-63.341v-11.41h25.965V378.181z M1616.724,333.724
		c1.521,0,2.938,0.276,4.249,0.826c1.311,0.551,2.452,1.326,3.424,2.321c0.97,0.997,1.729,2.138,2.281,3.423
		c0.552,1.286,0.826,2.689,0.826,4.209c0,1.469-0.274,2.86-0.826,4.17c-0.552,1.312-1.312,2.466-2.281,3.462
		c-0.972,0.997-2.111,1.77-3.424,2.32c-1.311,0.552-2.728,0.827-4.249,0.827c-1.521,0-2.938-0.275-4.249-0.827
		c-1.312-0.55-2.451-1.324-3.422-2.32c-0.972-0.997-1.73-2.151-2.282-3.462c-0.551-1.311-0.825-2.701-0.825-4.17
		c0-1.521,0.274-2.923,0.825-4.209c0.552-1.285,1.311-2.426,2.282-3.423c0.971-0.996,2.11-1.77,3.422-2.321
		C1613.785,334,1615.203,333.724,1616.724,333.724z"/>
	<path d="M1676.84,366.851h12.51l0.394,14.556c4.668-5.612,9.271-9.678,13.81-12.196c4.537-2.518,9.113-3.777,13.729-3.777
		c8.184,0,14.386,2.649,18.609,7.947c4.222,5.298,6.177,13.167,5.862,23.605h-13.848c0.157-6.924-0.854-11.946-3.031-15.068
		c-2.176-3.12-5.363-4.681-9.56-4.681c-1.836,0-3.685,0.328-5.548,0.983c-1.862,0.656-3.775,1.706-5.743,3.147
		c-1.968,1.443-4.052,3.292-6.256,5.547c-2.203,2.255-4.563,4.984-7.081,8.183v50.751h-13.848V366.851L1676.84,366.851z"/>
	<path d="M1765.528,421.064c1.782,0,3.475,0.342,5.075,1.021c1.6,0.684,2.99,1.627,4.171,2.834c1.18,1.207,2.11,2.609,2.792,4.211
		c0.682,1.6,1.023,3.316,1.023,5.152c0,1.783-0.342,3.461-1.023,5.037c-0.682,1.572-1.613,2.949-2.792,4.129
		c-1.181,1.18-2.571,2.113-4.171,2.793c-1.602,0.682-3.293,1.025-5.075,1.025c-1.837,0-3.541-0.344-5.114-1.025
		c-1.574-0.68-2.95-1.613-4.131-2.793c-1.18-1.18-2.112-2.557-2.793-4.129c-0.683-1.576-1.023-3.254-1.023-5.037
		c0-1.834,0.341-3.553,1.023-5.152c0.681-1.602,1.613-3.004,2.793-4.211c1.181-1.207,2.557-2.15,4.131-2.834
		C1761.987,421.406,1763.691,421.064,1765.528,421.064z"/>
	<path d="M1870.456,424.291c0,2.779-0.471,5.271-1.415,7.475c-0.944,2.201-2.23,4.158-3.855,5.861
		c-1.627,1.705-3.516,3.162-5.666,4.367c-2.149,1.207-4.445,2.203-6.885,2.99c-2.438,0.785-4.944,1.363-7.514,1.73
		c-2.57,0.365-5.089,0.553-7.554,0.553c-5.35,0-10.269-0.236-14.753-0.711c-4.484-0.471-8.879-1.23-13.18-2.281v-12.588
		c4.615,1.313,9.205,2.309,13.77,2.988c4.564,0.682,9.1,1.023,13.612,1.023c6.557,0,11.409-0.891,14.558-2.676
		c3.146-1.781,4.721-4.326,4.721-7.631c0-1.416-0.25-2.689-0.748-3.816s-1.404-2.203-2.715-3.227
		c-1.312-1.021-3.344-2.086-6.098-3.186c-2.754-1.104-6.52-2.361-11.291-3.777c-3.567-1.049-6.858-2.242-9.875-3.58
		c-3.018-1.338-5.627-2.926-7.829-4.762c-2.204-1.834-3.935-3.985-5.192-6.451c-1.261-2.465-1.889-5.377-1.889-8.734
		c0-2.203,0.511-4.615,1.534-7.238c1.022-2.623,2.766-5.063,5.231-7.318c2.466-2.255,5.796-4.131,9.994-5.625
		c4.195-1.496,9.441-2.243,15.736-2.243c3.096,0,6.531,0.17,10.308,0.511c3.777,0.342,7.711,0.932,11.803,1.771v12.196
		c-4.303-1.049-8.38-1.822-12.235-2.321c-3.855-0.498-7.199-0.747-10.033-0.747c-3.409,0-6.281,0.263-8.614,0.787
		c-2.335,0.525-4.224,1.247-5.666,2.164c-1.442,0.918-2.479,1.994-3.108,3.226c-0.629,1.233-0.943,2.557-0.943,3.974
		s0.274,2.702,0.826,3.855c0.551,1.155,1.573,2.27,3.068,3.344c1.495,1.076,3.581,2.151,6.255,3.227
		c2.676,1.076,6.164,2.242,10.466,3.502c4.668,1.365,8.602,2.793,11.803,4.287c3.198,1.496,5.796,3.16,7.789,4.996
		c1.993,1.838,3.422,3.91,4.289,6.217C1870.024,418.73,1870.456,421.354,1870.456,424.291z"/>
	<path d="M1960,445.85h-13.691v-50.437c0-6.085-1.141-10.635-3.423-13.652c-2.281-3.016-5.548-4.524-9.796-4.524
		c-1.838,0-3.555,0.25-5.154,0.748c-1.6,0.5-3.265,1.365-4.995,2.597c-1.731,1.233-3.62,2.898-5.666,4.996
		c-2.045,2.099-4.406,4.722-7.082,7.869v52.403h-13.691V334.668h13.691v32.182l-0.473,12.432c2.151-2.569,4.263-4.733,6.334-6.491
		c2.072-1.757,4.145-3.187,6.217-4.289c2.071-1.102,4.183-1.888,6.334-2.361c2.15-0.472,4.38-0.708,6.688-0.708
		c7.869,0,13.953,2.4,18.254,7.2c4.302,4.799,6.453,12.026,6.453,21.678V445.85L1960,445.85z"/>
</g>
</svg>
